PathFileType	4	(X/Y/Z)	C:/Users/beibeiliu/ov580/test_trc/User2\sequence.2_training_dense_right.trc
DataRate	CameraRate	NumFrames	NumMarkers	Units	OrigDataRate	OrigDataStartFrame	OrigNumFrames
120	120	10	19	mm	120	53	79
Frame#	Time	ThumbCMC			ThumbMCP			ThumbIP			ThumbTip			IndexMCP			IndexPIP			IndexTip			MiddleMCP			MiddlePIP			MiddleTip			RingMCP			RingPIP			RingTip			PinkyMCP			PinkyPIP			PinkyTip			BackHand1			BackHand2			BackHand3	
		X0	Y0	Z0	X1	Y1	Z1	X2	Y2	Z2	X3	Y3	Z3	X4	Y4	Z4	X5	Y5	Z5	X6	Y6	Z6	X7	Y7	Z7	X8	Y8	Z8	X9	Y9	Z9	X10	Y10	Z10	X11	Y11	Z11	X12	Y12	Z12	X13	Y13	Z13	X14	Y14	Z14	X15	Y15	Z15	X16	Y16	Z16	X17	Y17	Z17	X18	Y18	Z18	
52	0.433333	10.5718	38.284	18.0213	-10.7355	38.4148	-8.88699	-29.2719	25.2205	-36.4045	-34.1779	3.81237	-53.307	0.791046	1.38472	-62.4355	-11.4774	-13.7256	-81.8623	-21.1543	-30.3293	-100.048	15.9687	-13.5437	-65.0052	-2.20133	-27.9626	-89.835	-13.1131	-42.2045	-111.701	27.8093	-30.4073	-62.1054	15.9802	-39.8907	-78.6303	5.42255	-53.9879	-101.793	44.1009	-39.5211	-41.588	33.4423	-49.4228	-59.7141	26.2054	-57.4599	-82.2619	56.6195	0.0683669	-11.7433	72.4095	12.9499	10.4105	40.5707	34.4618	-1.75952	
53	0.441667	15.4048	54.1255	17.1462	-7.22184	60.9569	-4.55318	-27.8458	44.5497	-31.9477	-36.8403	23.1457	-44.6673	-5.96287	13.2362	-57.3363	-21.9269	0.780184	-73.2671	-38.5865	-14.8905	-93.4075	3.28384	-1.76762	-58.7935	-13.7668	-17.1509	-78.5603	-29.6064	-33.1419	-101.464	13.9262	-18.8634	-52.3123	-1.46959	-33.7906	-71.355	-18.1314	-42.6962	-93.9356	27.8161	-31.6981	-34.1852	13.9692	-41.2723	-51.6749	2.61678	-49.1021	-74.415	52.9806	0.238297	-13.5322	70.6436	15.0675	13.8213	43.6791	41.4723	-0.674807	
54	0.45	25.5343	68.0548	24.2106	3.49844	73.9395	-1.44384	-20.6665	62.6508	-27.4969	-34.6965	44.0429	-39.1333	-6.79969	28.9225	-51.3689	-23.5614	20.0193	-65.8315	-45.1248	5.87221	-86.0803	-1.51992	6.75987	-55.1684	-22.7313	-0.645449	-71.2068	-41.8542	-12.6457	-92.9953	4.33249	-11.5373	-48.5056	-11.3774	-21.632	-63.2763	-32.7021	-25.9518	-84.805	17.1288	-23.1928	-26.4843	-0.00230714	-30.0566	-45.6551	-14.1989	-34.9508	-64.6192	49.4842	6.07628	-7.86844	67.6781	14.4885	16.2583	46.2207	46.5924	1.39988	
55	0.458333	36.266	75.1086	25.2088	16.6135	90.3936	0.372841	-7.40713	80.7025	-23.7963	-28.1086	68.0372	-42.4437	-3.79699	45.2796	-50.8629	-23.5295	39.8463	-64.9866	-43.9906	31.5469	-83.1277	-3.18276	26.6719	-53.5143	-25.2175	22.4104	-70.7865	-49.4961	10.7946	-93.8617	-1.69439	8.48877	-47.5284	-17.918	-0.758822	-59.7006	-41.1702	-2.30274	-82.0005	7.27074	-10.4961	-26.0256	-12.1923	-10.5878	-44.2234	-24.8859	-18.4634	-60.4916	44.6179	15.1416	-5.56409	68.2396	20.2921	19.8682	53.5183	51.08	-0.435305	
56	0.466667	52.2849	82.0053	24.1389	36.8818	99.3671	-4.11808	11.3353	98.4244	-31.2699	-11.113	86.7326	-46.6926	7.96023	63.4704	-52.0375	-14.3195	64.1096	-69.4765	-36.8929	61.7413	-89.0988	1.86452	42.4477	-54.1531	-22.1538	42.1476	-71.8099	-46.0671	38.4518	-93.2746	-5.01351	24.6144	-48.1706	-23.2694	21.1813	-60.402	-43.1427	26.4838	-80.4149	-2.5615	8.99008	-28.6005	-21.4203	10.9727	-45.137	-35.3124	7.2725	-62.5974	43.6322	14.8371	-2.93647	64.6286	15.1217	16.9649	60.8537	53.175	3.1813	
57	0.475	62.3795	78.7914	17.2002	54.7535	96.6865	-7.82855	32.1565	104.884	-31.1133	9.19419	102.704	-47.4852	18.1963	73.4152	-53.3272	-3.83527	76.7516	-72.5937	-24.6609	82.2288	-91.2809	3.85482	53.7568	-57.1896	-20.7037	62.3564	-78.4691	-40.624	65.2997	-95.8087	-4.93778	38.0097	-46.0488	-23.9032	43.9931	-63.5356	-44.836	52.9217	-85.9445	-10.8583	23.6409	-28.3605	-28.4114	27.8891	-43.6925	-41.2062	32.2843	-66.1787	33.6191	19.9097	-5.65258	59.6388	16.443	17.8308	63.1203	47.8239	-1.9616	
58	0.483333	74.0585	74.3554	9.72052	68.2436	90.9841	-14.0094	45.3894	100.338	-41.1024	25.5684	107.43	-55.3321	23.1773	74.5363	-60.8892	3.88496	83.5322	-79.4769	-13.4511	90.4637	-94.9456	4.48737	60.5222	-62.287	-12.4918	71.5169	-78.1973	-32.3508	80.9438	-100.784	-8.50176	48.5578	-51.3142	-25.0896	56.961	-65.2702	-41.1122	70.0067	-89.2247	-16.0013	35.4213	-28.8037	-29.8579	47.3729	-45.6064	-41.9566	51.0208	-64.1529	31.819	23.4552	-5.51942	49.091	12.5686	15.8865	63.1672	40.0977	-4.22704	
59	0.491667	81.1171	63.2216	1.27731	78.4004	79.0252	-23.1593	57.1232	91.4091	-49.1094	39.9213	102.14	-61.6449	33.2986	68.5267	-64.4386	18.0765	80.9881	-84.6089	-5.79522	91.9059	-105.856	9.07353	57.6737	-64.3098	-6.8244	74.4972	-87.4903	-27.7363	84.3353	-108.463	-6.27744	50.1338	-51.7342	-18.8108	62.8758	-67.9887	-34.6698	73.0966	-89.6446	-16.3133	44.5709	-32.0584	-29.4895	53.5001	-44.5452	-39.1356	63.7069	-67.789	22.0323	20.5699	-10.7792	42.3559	7.08249	15.0783	65.444	32.6731	-9.51967	
60	0.5	87.9607	49.9367	-5.44225	86.494	63.4993	-31.1028	71.509	80.0735	-59.3847	52.5996	89.1425	-71.8193	35.7929	59.3716	-75.1846	21.5754	70.6904	-94.3962	5.61132	80.6713	-110.888	18.1148	53.4212	-71.9673	0.31901	68.9683	-94.8491	-11.5052	77.8807	-115.982	-1.44573	48.465	-57.7996	-14.971	60.4173	-75.2564	-24.2562	73.0272	-100.477	-9.79514	45.7698	-34.8651	-23.7671	56.75	-53.1964	-32.869	61.6294	-76.4342	26.3087	18.3278	-9.53966	41.7795	5.72483	11.8053	61.2051	22.3459	-11.7911	
61	0.508333	96.0566	38.2938	-9.95672	95.4341	50.0459	-40.1364	78.6232	62.7294	-70.1538	62.7627	73.3228	-87.0236	43.2936	42.0796	-81.4693	31.575	51.7764	-102.005	19.741	62.7034	-124.453	26.0847	38.3945	-77.5025	10.8731	50.5184	-100.353	-1.75343	58.597	-126.547	4.29076	36.566	-66.5504	-3.51556	46.1858	-85.5295	-16.4482	54.8058	-109.352	-5.43636	33.9967	-40.9563	-13.725	44.0423	-61.6523	-19.9822	50.3807	-84.8443	29.8722	9.70626	-13.2093	46.0704	-2.05092	12.2502	71.9136	10.3029	-19.2023	
